<?xml version="1.0" encoding="UTF-8" standalone="no"?>
<svg
   version="1.1"
   id="Layer_1"
   x="0px"
   y="0px"
   width="741250.81"
   viewBox="0 0 741250.81 267481.62"
   enable-background="new 0 0 1024 1024"
   xml:space="preserve"
   height="267481.62"
   xmlns="http://www.w3.org/2000/svg"
   xmlns:svg="http://www.w3.org/2000/svg"><defs
   id="defs15" />














<g
   id="g15"
   transform="translate(-159255.73,-361735.76)"><path
     fill="#000000"
     opacity="1"
     stroke="none"
     d="m 311.97214,524.35925 c -4.82709,-0.004 -9.16443,-0.13012 -13.49143,0.028 -3.30057,0.12054 -4.32702,-1.30219 -4.30005,-4.47498 0.20145,-23.65878 0.34616,-47.31842 0.38474,-70.978 0.0253,-15.47564 -0.59595,-30.94677 -0.18716,-46.4306 0.089,-3.37405 1.15042,-4.48779 4.28454,-4.41183 3.49695,0.0848 7.09219,0.48953 10.4798,-0.13675 9.03647,-1.67047 13.7287,2.80389 18.14126,10.10507 11.88797,19.67007 24.52546,38.8873 36.8834,58.27283 0.79083,1.24057 1.73446,2.38372 2.8179,3.85943 3.02728,-2.34805 4.53253,-5.52756 6.38998,-8.36422 13.13816,-20.06434 26.24063,-40.15235 39.24017,-60.30652 1.56516,-2.42658 3.53531,-3.37366 6.19117,-3.39521 5.66553,-0.0459 11.34179,0.14289 16.99371,-0.14999 4.47858,-0.23209 5.6131,1.61777 5.59576,5.87732 -0.143,35.16269 -0.0812,70.32623 -0.0829,105.4895 -1.8e-4,3.49964 -0.16028,7.00726 0.0261,10.49665 0.18955,3.54736 -1.39349,4.6607 -4.75281,4.56964 -5.99493,-0.16254 -12.01028,-0.27863 -17.99276,0.0412 -4.40692,0.23566 -5.77106,-1.34057 -5.73441,-5.70526 0.17783,-21.16305 0.0798,-42.32843 0.0796,-63.49298 -3e-5,-2.28116 -3e-5,-4.56228 -3e-5,-7.83713 -10.98318,16.18818 -21.42316,31.57566 -31.86301,46.96326 -0.65481,0.96518 -1.30926,1.9306 -1.96249,2.89679 -4.83606,7.15286 -8.67831,8.68057 -17.1178,7.07208 -2.54111,-0.48434 -3.34176,-2.52243 -4.51925,-4.26892 -11.35425,-16.84082 -22.69211,-33.69269 -34.32886,-50.97839 -1.21631,1.97616 -0.82825,3.76117 -0.8313,5.40332 -0.0383,20.66458 -0.0294,41.32928 -0.0319,61.99393 -9.2e-4,7.86816 -9e-5,7.86822 -7.81873,7.86328 -0.66638,-3.7e-4 -1.33273,-10e-4 -2.49328,-10e-4 z"
     id="path1" /><path
     fill="#000000"
     opacity="1"
     stroke="none"
     d="m 737.72229,414.32861 c 9.83002,12.28003 11.54144,25.74979 7.59271,40.25428 -4.13257,15.17929 -15.63592,22.44552 -30.48315,27.30075 5.65747,7.32785 10.89435,14.12033 16.1416,20.90487 5.17047,6.68543 10.35156,13.36274 15.32965,19.78766 -0.49048,1.80353 -1.57697,1.75806 -2.55084,1.76013 -8.83264,0.0189 -17.66663,-0.0788 -26.49713,0.0576 -2.78583,0.043 -4.16346,-1.53003 -5.61927,-3.44049 -8.37994,-10.99722 -16.88488,-21.90018 -25.17041,-32.96765 -2.22638,-2.97388 -4.75775,-4.21207 -8.4508,-4.13382 -8.16175,0.17288 -16.33606,0.18017 -24.49378,-0.0901 -3.49005,-0.1156 -4.24792,1.28659 -4.21325,4.38159 0.11542,10.33127 -0.0743,20.66663 0.0983,30.99625 0.0624,3.74029 -0.92083,5.4732 -5.03198,5.28894 -6.31995,-0.28351 -12.66522,-0.18054 -18.99402,-0.0178 -3.35632,0.0863 -4.75457,-1.02259 -4.74707,-4.56861 0.0826,-38.99695 0.0827,-77.99423 -0.003,-116.99118 -0.008,-3.42883 1.19934,-4.86047 4.60022,-4.82052 25.98712,0.30536 52.01141,-1.03992 77.95269,0.81778 12.97297,0.92901 25.15644,4.98739 34.53919,15.48037 m -85.57367,46.25403 c 13.81689,0.0197 27.63373,0.054 41.45062,0.0502 4.03174,-10e-4 7.95221,-0.87869 11.69837,-2.23883 8.07257,-2.93112 12.48944,-9.32696 12.3482,-17.44351 -0.13598,-7.81607 -4.73468,-13.79443 -12.83526,-16.51269 -3.31415,-1.11213 -6.7522,-1.94904 -10.25269,-1.84946 -13.47705,0.38333 -26.95196,0.69366 -40.42102,-0.11212 -3.26215,-0.19516 -4.91205,0.65683 -4.84222,4.36657 0.18475,9.81846 0.0566,19.64264 0.0678,29.46457 0.002,1.66434 -0.12177,3.42169 2.78625,4.27524 z"
     id="path2" /><path
     fill="#000000"
     opacity="1"
     stroke="none"
     d="m 222.93967,449.70615 c 10.46675,1.52117 20.68979,1.08029 30.56387,3.8572 15.19736,4.27399 24.05585,15.0839 24.87396,30.00196 1.28223,23.38022 -10.04815,32.72918 -22.56085,37.406 -6.25308,2.33728 -12.76918,3.45026 -19.52853,3.42035 -24.81713,-0.10974 -49.63588,-0.15155 -74.45186,0.0496 -4.69505,0.038 -6.60254,-1.16296 -6.27788,-6.11419 0.39009,-5.94916 0.0922,-11.94342 0.0922,-17.67402 2.22413,-1.53497 4.28407,-0.98706 6.21979,-0.9905 23.81816,-0.0426 47.63655,-0.0668 71.45452,0.009 3.38576,0.0108 6.65242,-0.44806 9.78855,-1.53336 4.59149,-1.58896 7.6741,-4.44476 7.70477,-9.82385 0.0302,-5.29385 -2.71913,-8.42438 -7.38589,-10.05429 -6.3416,-2.21488 -13.0239,-2.40863 -19.6404,-2.9032 -12.74902,-0.95297 -25.54875,-1.48929 -38.12808,-3.97678 -15.95705,-3.15545 -25.8855,-13.40298 -27.90433,-28.54165 -2.34357,-17.57379 4.86597,-31.9047 19.47577,-39.17047 8.74184,-4.34751 18.09093,-5.46341 27.61462,-5.52732 20.15308,-0.13528 40.30915,0.0638 60.46018,-0.18414 4.89731,-0.0602 6.53958,1.59921 6.10431,6.33542 -0.33396,3.63364 -0.0639,7.3226 -0.0668,10.98694 -0.006,7.71606 -0.007,7.7431 -7.51691,7.74826 -19.32105,0.0132 -38.64211,-0.0161 -57.96311,0.0114 -3.8208,0.005 -7.65379,-0.0228 -11.35401,1.26428 -5.88762,2.04792 -8.9408,5.53131 -9.14156,10.57615 -0.19495,4.8992 2.70685,8.8349 8.57649,10.97158 9.20679,3.35147 18.97592,2.85172 28.99114,3.85569 z"
     id="path3" /><path
     fill="#000000"
     opacity="1"
     stroke="none"
     d="m 575.87238,503.20358 c 6.17987,12.53751 12.18408,24.74228 18.71667,38.02109 -6.04572,0 -10.95227,0.17712 -15.83734,-0.0709 -2.64661,-0.13434 -2.95044,-2.93537 -3.85419,-4.76624 -9.14258,-18.52063 -17.57647,-37.42599 -27.52234,-55.50088 -5.35223,-9.72666 -10.44818,-19.5181 -15.14294,-29.551 -0.28058,-0.59964 -0.60474,-1.17886 -0.75,-1.4602 -2.55512,0.76547 -2.08331,2.31979 -2.09967,3.53158 -0.0696,5.16559 0.66607,10.45117 -0.17487,15.4784 -3.80469,22.7449 -1.29834,45.63467 -2.03991,68.44088 -0.0988,3.03858 -1.35328,3.95917 -4.23938,4.09766 -10.06153,0.48303 -10.409,0.57611 -10.63892,-9.44159 -0.35168,-15.32464 1.00354,-30.78387 -0.58615,-45.95328 -1.18396,-11.29745 -1.92066,-22.51697 -2.10117,-33.82742 -0.0196,-1.22839 -0.28869,-2.47382 -1.78134,-2.5683 -1.89105,-0.11972 -2.46698,1.509 -3.05566,2.84125 -2.75855,6.24329 -4.13724,13.66653 -8.4249,18.54462 -8.81781,10.03207 -11.75046,22.68377 -17.62381,33.97094 -5.06631,9.73621 -9.53339,19.81873 -13.66577,29.99176 -2.00971,4.94739 -4.66641,7.24103 -10.0015,6.44782 -2.09167,-0.31098 -4.26828,-0.0508 -6.19192,-0.0508 -1.28275,-2.74775 0.28528,-4.40985 1.03509,-6.10755 9.01786,-20.41803 18.14951,-40.7858 27.18293,-61.19699 1.09118,-2.46554 3.01519,-4.83746 1.15774,-7.9252 -0.69095,-1.14862 0.47583,-2.52109 1.0383,-3.71274 2.34665,-4.97168 4.76657,-9.90979 7.04108,-14.91409 1.19528,-2.62979 2.07983,-5.14243 5.85977,-5.03806 2.67954,0.074 2.83481,-2.1918 1.73883,-3.95813 -7.63965,-12.3124 -4.418,-25.91235 -4.50662,-39.03399 -0.05,-7.41153 -0.62036,-15.01938 1.99274,-22.25946 1.12887,-3.12778 2.07681,-6.32865 3.35244,-9.3942 3.96265,-9.5227 9.7768,-16.26175 21.508,-14.21237 2.42535,0.4237 5.03186,0.35342 7.48108,-3.4e-4 8.62854,-1.24624 13.82135,2.95719 17.4552,10.24091 4.28515,8.58908 7.38611,17.40936 7.18365,27.19256 -0.15851,7.66294 0.0421,15.33274 -0.0552,22.99775 -0.0359,2.83059 0.3966,4.96679 3.82464,5.13586 2.56073,0.12631 3.31738,1.75613 3.19837,4.09409 -0.0847,1.66208 -0.17389,3.35177 0.0233,4.99502 0.53992,4.49954 -1.16547,6.27878 -5.84625,6.07627 -5.14331,-0.22251 -6.2301,1.34295 -6.60431,8.15069 6.6878,-1.54736 7.91284,3.86514 9.8551,8.09265 7.94312,17.289 13.49652,35.62729 23.09925,52.60199 M 519.47876,360.32962 c -1.82806,0.001 -3.65613,-6.1e-4 -5.48419,0.005 -7.17606,0.0204 -9.87982,3.1629 -8.38455,10.23758 0.56008,2.65017 0.67657,5.25506 0.67584,7.90286 -0.003,11.29981 0.12518,22.60361 -0.1478,33.8974 -0.10162,4.20422 1.31317,5.62967 5.42737,5.3613 4.30182,-0.28058 8.63739,-0.026 12.95807,-0.0382 7.11548,-0.0201 7.11944,-0.0313 7.12616,-7.13507 0.012,-12.62967 -0.47162,-25.2844 0.17169,-37.88168 0.58862,-11.52695 0.3988,-12.33317 -10.88495,-12.34736 -0.1662,-2.1e-4 -0.33234,-4.8e-4 -1.45764,-0.001 z"
     id="path4" /><path
     fill="#000000"
     opacity="1"
     stroke="none"
     d="m 773.02032,398.05792 c 33.46888,0.004 66.44172,6e-5 99.41456,0.015 6.89801,0.003 6.90277,0.0348 6.91265,6.87008 0.006,4.49628 -0.151,8.999 0.0435,13.48673 0.14185,3.27353 -1.22723,4.48819 -4.36615,4.44742 -12.14148,-0.15778 -24.28613,-0.13166 -36.42535,-0.38126 -5.80524,-0.11932 -6.25019,0.0639 -6.25232,5.92981 -0.0107,29.80878 0.002,59.61758 -0.008,89.42636 -0.002,6.46485 -0.0294,6.47687 -6.66803,6.4953 -5.49542,0.0153 -11.00683,-0.2616 -16.48144,0.0751 -4.53943,0.27911 -5.61554,-1.57166 -5.59473,-5.80323 0.14417,-29.3085 0.077,-58.61801 0.0731,-87.92721 -10e-4,-7.79651 -0.008,-7.79444 -8.03278,-7.79383 -10.9909,8.6e-4 -21.98394,-0.126 -32.97174,0.0586 -4.35437,0.0731 -6.40838,-1.11533 -6.09582,-5.93149 0.38507,-5.93353 0.0919,-11.91104 0.0919,-17.90692 5.58331,-1.5925 10.75647,-0.88181 16.36071,-1.06049 z"
     id="path5" /><path
     fill="#000000"
     opacity="1"
     stroke="none"
     d="m 711.29926,583.1781 c 2.21612,10.64844 0.39129,19.76733 -8.25184,26.35858 -7.69995,5.87201 -22.28851,5.71906 -30.75756,0.23816 -7.55872,-4.89178 -11.06086,-16.1369 -8.52009,-27.3573 1.98755,-8.77722 8.83155,-14.54144 18.38062,-15.85449 3.6759,-0.50549 7.24493,-0.55988 10.89819,0.0582 9.46015,1.6004 15.719,6.71679 18.25068,16.55682 M 684.461,604.7829 c 6.80188,1.18097 12.50934,-1.35999 15.65661,-6.97034 3.31287,-5.90539 2.67438,-13.14258 -1.59619,-18.0946 -4.04229,-4.68732 -10.53613,-6.37482 -16.28979,-4.23304 -5.65942,2.10669 -9.06958,7.45111 -9.0423,14.17102 0.032,7.8816 3.21045,12.41413 11.27167,15.12696 z"
     id="path6" /><path
     fill="#000000"
     opacity="1"
     stroke="none"
     d="m 332.27722,566.98566 c 6.78116,0.20727 13.09821,-0.33423 19.41532,0.50628 9.10714,1.21167 13.55157,4.30188 15.2778,11.12653 1.93679,7.65716 -0.25187,12.38605 -8.3877,17.84869 0.89291,3.25525 3.37073,5.58509 5.20804,8.28742 1.74176,2.56183 3.59009,5.05121 5.49185,7.71283 -8.27112,2.23163 -10.70386,1.45788 -15.21072,-4.61218 -1.88452,-2.53821 -3.90814,-5.00434 -5.50601,-7.71674 -2.15223,-3.65344 -5.5065,-3.54559 -8.7692,-2.92493 -3.58527,0.68195 -2.13611,3.98548 -2.34634,6.2041 -0.28073,2.96253 -0.0694,5.97162 -0.0694,8.87946 -7.74799,2.76416 -9.52313,1.60998 -9.53095,-5.9989 -0.0118,-11.48767 0.0436,-22.97589 -0.0534,-34.46277 -0.0248,-2.93091 0.58767,-4.95184 4.48077,-4.84979 m 24.08231,18.88946 c 2.12063,-5.19146 0.98947,-7.86407 -4.02137,-9.64013 -4.05847,-1.43848 -8.2362,-0.76288 -12.372,-0.73993 -1.57062,0.009 -2.45429,1.06127 -2.4982,2.57855 -0.077,2.65954 -0.0602,5.32477 0.0205,7.98456 0.0382,1.26007 0.70249,2.49578 2.02897,2.44488 5.50353,-0.21149 11.32727,1.95728 16.84213,-2.62793 z"
     id="path7" /><path
     fill="#000000"
     opacity="1"
     stroke="none"
     d="m 795.0318,609.1095 c 0.77643,1.2771 1.73346,2.10193 1.4494,3.40918 -7.47436,2.17682 -9.88196,1.42157 -14.28644,-4.50354 -2.281,-3.06861 -4.57849,-6.12653 -6.78625,-9.24756 -1.28345,-1.81421 -2.94104,-2.36402 -5.11554,-2.43738 -3.48059,-0.11737 -5.2923,0.88361 -5.0011,4.7901 0.28168,3.77869 0.061,7.59473 0.061,11.27179 -8.31481,2.39893 -9.59661,1.50629 -9.59613,-6.26831 7.4e-4,-11.30744 0.12885,-22.61713 -0.0721,-33.92102 -0.0723,-4.06372 1.18555,-5.81043 5.41168,-5.4751 6.2829,0.49854 12.61951,-0.49908 18.90137,0.6214 9.88147,1.76251 13.12988,4.52991 14.78253,12.7854 1.26575,6.32275 -1.15387,10.63489 -9.31445,15.98755 3.12622,4.24115 6.2392,8.46442 9.56604,12.98749 m -10.77484,-24.51166 c 0.89355,-6.26453 -0.94336,-8.70264 -7.10779,-9.16266 -2.48218,-0.18524 -4.99329,0.0417 -7.48084,-0.10083 -3.26818,-0.18732 -4.54107,1.31061 -4.33386,4.46991 0.13044,1.98816 0.024,3.99078 0.0778,5.98541 0.0407,1.50843 0.74078,2.65802 2.33881,2.70416 5.60419,0.16205 11.34521,0.8758 16.50592,-3.89599 z"
     id="path8" /><path
     fill="#000000"
     opacity="1"
     stroke="none"
     d="m 862.45673,586.20776 c 10.59454,3.46582 14.76184,10.06128 11.77026,18.20221 -1.4718,4.00525 -4.29419,6.65106 -8.29077,8.05982 -10.98133,3.87079 -21.09888,1.66217 -31.08447,-3.95831 0.95129,-3.31202 2.74865,-5.35242 4.91192,-7.4394 5.29047,2.63159 10.5166,5.31732 16.60388,4.59125 1.46363,-0.17456 2.96735,-0.41052 4.33069,-0.93518 2.08783,-0.80353 3.87561,-2.0882 3.88495,-4.65888 0.009,-2.5932 -1.81354,-3.96606 -3.90393,-4.62457 -4.74438,-1.49438 -9.60614,-2.61169 -14.37555,-4.03222 -4.79382,-1.4278 -8.17792,-4.47333 -9.40246,-9.42933 -1.41871,-5.74206 0.93878,-11.25128 6.36895,-13.82287 9.98133,-4.72699 19.58948,-2.58759 29.09491,1.75195 -2.78216,7.78589 -2.88971,7.88019 -9.87384,5.41821 -3.55871,-1.25439 -7.17865,-1.43798 -10.82196,-0.84545 -2.39258,0.38916 -4.65985,1.54394 -5.02869,4.18157 -0.41693,2.98243 2.12427,3.95832 4.33448,4.62159 3.65088,1.09546 7.39856,1.86841 11.48163,2.91961 z"
     id="path9" /><path
     fill="#000000"
     opacity="1"
     stroke="none"
     d="m 185.43384,567.13648 c 2.56897,0.86889 4.90225,1.28582 6.61815,2.99804 -1.24132,6.69354 -2.66332,7.58539 -8.6343,5.44995 -4.17282,-1.49231 -8.41397,-2.0476 -12.70538,-0.63531 -1.94699,0.64075 -3.85507,1.72162 -3.91795,4.03442 -0.0637,2.34381 1.80732,3.51306 3.77023,4.10193 4.29015,1.28705 8.64806,2.34631 12.96407,3.5495 7.93885,2.21332 11.82063,6.65234 11.80204,13.42688 -0.0189,6.88898 -4.17506,11.56763 -12.33865,13.49109 -8.23001,1.93902 -16.17191,0.68512 -23.86038,-2.64881 -2.67449,-1.15972 -4.26522,-2.63708 -2.30925,-5.67511 1.5345,-2.38342 2.57347,-5.18115 6.41778,-2.70105 4.30851,2.77955 9.24376,3.59687 14.37299,3.14747 3.61061,-0.31629 7.01141,-1.73316 7.51787,-5.37647 0.50679,-3.64563 -3.17842,-4.70709 -6.01772,-5.53998 -3.65588,-1.07232 -7.4789,-1.57269 -11.13923,-2.63269 -7.06511,-2.04571 -11.2063,-7.06793 -11.08651,-13.06738 0.12989,-6.50427 4.33011,-10.948 11.90918,-12.70459 5.48854,-1.2721 10.89044,-0.86957 16.63706,0.78211 z"
     id="path10" /><path
     fill="#000000"
     opacity="1"
     stroke="none"
     d="m 533.23962,572.90784 c -0.72613,3.04114 -2.88354,2.37707 -4.57446,2.40649 -5.32727,0.0929 -10.66247,0.1842 -15.98419,-0.009 -3.7208,-0.13538 -4.4465,1.71252 -4.39432,4.9195 0.0515,3.164 0.24417,5.62963 4.43942,5.43817 4.48651,-0.20472 8.99067,0.0112 13.48621,-0.0405 2.48602,-0.0285 4.14276,0.49341 4.13544,3.54816 -0.007,2.87939 -0.88727,4.32861 -3.99878,4.24115 -4.65882,-0.13099 -9.32971,0.12011 -13.9856,-0.054 -4.03198,-0.15069 -4.18567,2.3382 -4.01004,5.22211 0.17063,2.802 -1.05041,6.41797 3.89401,6.37646 5.66126,-0.0475 11.32691,0.14411 16.98395,-0.0122 3.43689,-0.0949 4.80158,1.30389 4.82001,4.6809 0.0179,3.30011 -1.81952,3.75525 -4.50427,3.73444 -8.82532,-0.0684 -17.65268,-0.0906 -26.4769,0.0355 -3.1435,0.0449 -4.47788,-1.01391 -4.44708,-4.30896 0.11819,-12.65497 0.14199,-25.3128 -0.009,-37.9671 -0.0437,-3.65277 1.5838,-4.51642 4.82974,-4.46735 8.15793,0.12348 16.32782,0.25818 24.47552,-0.0584 4.5788,-0.17785 6.04975,1.62458 5.3208,6.31507 z"
     id="path11" /><path
     fill="#000000"
     opacity="1"
     stroke="none"
     d="m 265.50281,614.17584 c -2.60297,0.0941 -4.77213,0.23621 -6.92859,0.1272 -12.20163,-0.61652 -18.87708,-7.6156 -18.91606,-19.80566 -0.025,-7.82404 0.13107,-15.65094 -0.0427,-23.47101 -0.0831,-3.73877 1.78445,-4.36463 4.93696,-4.3844 3.27617,-0.0204 4.90581,0.90539 4.81968,4.52142 -0.17437,7.32037 -0.0657,14.64819 -0.0285,21.97266 0.0425,8.37549 3.79142,12.48254 11.38704,12.55395 7.89386,0.0742 11.80948,-4.02014 11.90216,-12.62152 0.0789,-7.32385 0.16959,-14.65301 -0.0267,-21.97223 -0.0981,-3.65753 1.54123,-4.43567 4.79852,-4.46685 3.47116,-0.0331 4.10492,1.48718 4.02893,4.56848 -0.18869,7.65277 -0.0409,15.31347 -0.052,22.971 -0.0186,12.80188 -3.19253,16.89008 -15.87881,20.00696 z"
     id="path12" /><path
     fill="#000000"
     opacity="1"
     stroke="none"
     d="m 455.27338,567.15735 c 0.99908,3.2857 -1.05341,5.54919 -2.14948,8.04846 -5.00577,11.41419 -10.25915,22.72052 -15.19391,34.16461 -1.34286,3.11426 -3.23654,4.06464 -6.48114,4.09259 -3.32611,0.0287 -5.00986,-1.14697 -6.33301,-4.22107 -5.58325,-12.97162 -11.449,-25.82147 -17.1907,-38.72509 -0.38739,-0.87067 -0.60367,-1.81745 -0.89767,-2.72303 7.67666,-2.63409 10.1289,-1.6391 12.98083,5.04993 3.45334,8.09955 6.9054,16.19977 10.3754,24.29218 0.32458,0.75701 0.7738,1.46057 1.55551,2.9154 3.99325,-9.16595 7.7807,-17.84216 11.55356,-26.52478 3.1694,-7.29388 3.16189,-7.29718 11.78061,-6.3692 z"
     id="path13" /><path
     fill="#000000"
     opacity="1"
     stroke="none"
     d="m 586.35644,566.84656 c 5.99164,4.97064 8.50458,12.11273 13.49207,17.97876 3.46259,-3.82508 5.7862,-8.34619 8.59125,-12.51544 4.20074,-6.2436 5.35473,-6.68396 13.22442,-4.91095 0.6615,1.9342 -0.8952,3.07373 -1.73938,4.37732 -2.25762,3.4859 -4.45678,7.04821 -7.08215,10.24975 -6.3518,7.74567 -10.20862,16.15747 -8.55847,26.47492 0.49524,3.09649 -0.5329,4.93084 -4.28723,4.93975 -3.72522,0.009 -4.93659,-1.76934 -4.29175,-4.87542 2.79193,-13.44928 -6.69043,-21.82148 -12.8233,-31.58661 -1.91114,-3.04309 -4.41828,-5.72962 -5.94116,-9.59644 3.16137,-1.10895 6.11077,-0.57904 9.4157,-0.53564 z"
     id="path14" /><path
     fill="#000000"
     opacity="1"
     stroke="none"
     d="m 516.08435,413.96582 c -7.44891,0.0551 -7.44757,0.0551 -7.45837,-6.63855 -0.0164,-10.13556 0.1336,-20.27548 -0.13114,-30.4046 -0.11429,-4.37189 1.7879,-6.15763 5.79325,-6.19592 15.10144,-0.14438 15.8764,-1.30301 15.62005,14.33026 -0.13067,7.96954 -0.5581,15.93853 -0.49603,23.905 0.0286,3.67492 -1.19757,5.19784 -4.86804,4.98071 -2.64868,-0.15665 -5.31586,-7.6e-4 -8.45972,0.0231 m -3.12689,-19.36401 c 0.58502,2.49881 1.16846,5.06569 4.51416,4.98629 1.43314,-0.034 3.1335,0.38708 4.43732,-0.10976 0.70866,-0.27004 1.30018,-0.81127 1.66796,-1.84415 1.08235,-3.0397 3.00422,-6.48771 0.84204,-9.48435 -2.28802,-3.17108 -6.24719,-2.10648 -9.30456,-1.40405 -3.78494,0.86966 -2.67224,4.34323 -2.15692,7.85602 z"
     id="path15" /></g>
</svg>
