<?xml version="1.0" encoding="UTF-8"?>
<svg id="Layer_1" xmlns="http://www.w3.org/2000/svg" xmlns:inkscape="http://www.inkscape.org/namespaces/inkscape" version="1.1" viewBox="0 0 426 134.7">
  <!-- Generator: Adobe Illustrator 29.5.1, SVG Export Plug-In . SVG Version: 2.1.0 Build 141)  -->
  <defs>
    <style>
      .st0 {
        fill: #fff;
      }

      .st0, .st1 {
        fill-rule: evenodd;
      }

      .st2 {
        fill: #d40e14;
      }

      .st3 {
        fill: none;
        stroke: #dc0811;
        stroke-linecap: round;
        stroke-linejoin: round;
        stroke-width: 0px;
      }

      .st1 {
        fill: #dc0811;
      }
    </style>
  </defs>
  <g inkscape:groupmode="layer" inkscape:label="Layer 1">
    <path class="st1" d="M131.3,23.4c.8,2.2,2,2.3,2.1,0-.2-5.9-.3-11.7-.5-17.6-.8.1-1.6.2-2.4.4-8,0-17.4-2.3-24.9,1.4-14.2,7.3-14.9,25.6-4.8,36.5,14,13.3,26.7,19.1,23.8,32.2-4.6,15.2-15.3,16.8-28.9,11-1.2-4.1-1.5-9.3-2.7-13.4-.5-1.2-1.8-1.1-1.8.4,1,6.2.5,12.5.8,18.8,6.2-1,12.2,1,18.3,1.2,14.5-1,23.6-8.9,24.1-26.5-1.5-23.8-30.1-26.2-32-42.2-.6-9.6,5-16.7,13.4-17.6,5.6,0,13.1,2.2,13.8,3.9.7,3.9,1,7.8,1.7,11.7ZM252.4,70.5h26.7l7.6,18.6-10.8,2h30.7l-7.2-1.9-28.1-63.6h-4.9l-26.4,63.5-7.4,2h18.9l-6.5-2,7.4-18.6ZM277.8,67.4h-24.2l11.9-30,12.2,30ZM330.2,57.9v-30.2c2.7,0,5.1,0,7.8,0,4.1.4,12.1,6.5,12.7,15.5.7,7.9-4.8,13.4-10.7,14.8-3.3.3-6.6,0-9.8,0ZM364,24.2V5.4c1.5.7,3.1.9,4.8.7h52.4c1.7.1,3.4,0,4.8-.7v18.8c-1.5-4.5-3-9.1-4.6-13.6h-21.4v78.3l10.3,2.3h-15.3c0,0-15.4,0-15.4,0l10.3-2.3V10.6h-21.4c-1.5,4.5-3,9.1-4.6,13.6ZM309.5,25.2h33c10.9,1.4,17.2,7.1,18.4,17.8.4,7.7-5.3,13.8-12.6,16.2,7.8,4.2,16.9,20.9,23.9,29.9,1.9,1.4,8.3,1.5,4.2,2.3-3.5.7-12.6.3-15.8-3.1-7.4-8.2-15.3-24.2-22.3-27.2-2.7,0-5.4-.2-8.2-.3.2,9.4.4,18.7.5,28.1,3.7.8,7.4,1.5,11.2,2.3h-33.2s9.2-2,9.9-2,.7-58.1.7-59.8c0-1.6-.6-2.4-1.7-2.6-2.7-.5-5.3-1.1-8-1.6ZM136.2,25.5h17.8l27.8,52.4,29-52.3h17.9l-10.9,2.1,3.6,61.4,6.9,2.1h-27.8l9.9-2.1-2.4-50.3-28.9,52.7-28.2-51.2-3.6,48.8,9.5,2-23.4.4,8.8-2.4,5.8-54.5-3.6-6.3-8-2.8Z"/>
    <path class="st1" d="M47.2,0c5,0,9.1,3.7,9.1,8.3s-4.1,8.3-9.1,8.3-9.1-3.7-9.1-8.3S42.2,0,47.2,0ZM11.9,13.2c1.7-.2,3.5-.5,5.2-.7-.7,8.5.9,12.3,5.2,10.9,4.4-1,8.8-2,13.2-3,6.3.7,13.5.7,21.4,0,9.8,2.1,18,5.3,16.5,15.5-1.3,5.3-5.4,8.6-11.3,10.7-.5-1.3-1-2.7-1.5-4,4.1-2.3,6.8-5.1,7-8.6-.7-4.3-5.3-6.7-11.3-6.1,1.1,17.3,2.2,34.5,3.3,51.8-5.1-9.7-10.3-19.3-15.4-29-5.7,9.7-11.3,19.3-17,29,3.1-16.9,6.1-33.9,9.2-50.8-4.2.4-8.3.8-12.5,1.3-4.5.3-7.3-.7-8.7-2.7.7-2.9,1.1-5.6-2.7-4.9-.2-3.1-.4-6.2-.6-9.3ZM0,4.9h5.5v5.1H0v-5.1ZM7.9,4.9l27.7.7v3.7l-27.7.7v-5.1ZM43.2,78.6c15.6,0,28.3,10.3,28.3,22.9s-12.7,22.9-28.3,22.9-14.4-2.4-19.4-6.3c4.3-6.9,11.7-12.5,21.6-17.1.6-1,.2-1.5-1-1.4-8.8,3.1-17.4,8.3-24.2,15.2-.9-1-1.7-2.2-2.4-3.3,5.2-9,15.5-14.4,29.3-17.3.9-.9.5-1.4-.7-1.6-10.9,1.2-22.2,5.2-31.2,12.1-.2-1-.3-2.1-.3-3.2s0-.4,0-.6c7-9.4,19.1-13,34.8-12.6,1-.6.8-1.2-.3-1.7-10.1-1.3-21-.3-30.8,3.5,4.9-6.9,14-11.6,24.6-11.6"/>
    <path class="st2" d="M238,122.9h-.8c0-1.9-.3-4.3-1.1-6.9.3,0,.5-.2.7-.2.3,1,.6,1.8.8,2.2.2.5.4.9.7,1.2.3.4.7.7,1.3,1,.9.5,1.9.9,3.1,1.3,1.1.3,2.4.5,3.8.5s2.4-.3,3.5-.9c1.2-.5,1.8-1.8,1.8-3.8s-.2-1.9-.5-2.5c-.3-.7-.8-1.3-1.4-1.8-.5-.4-1.2-.8-1.9-1.1-.7-.3-1.7-.8-2.9-1.2-1.6-.6-3-1.2-4-1.8-1.1-.6-1.9-1.4-2.5-2.3-.6-.9-.9-2-.9-3.3,0-2.1.8-3.8,2.3-5.2,1.5-1.4,3.7-2.1,6.5-2.1s2.9.2,4.3.5c.5.1.9.2,1.1.2.4,0,.8-.1,1.2-.4h.2c.1,0,.3,0,.4,0,0,.3,0,.6-.1.9,0,.3,0,.6,0,1,0,.4,0,.7,0,.9,0,.2,0,.3,0,.4.2,1.6.3,2.5.3,2.7h-.6c-.1-1.4-.5-2.4-1.4-3.2-.8-.8-1.7-1.4-2.7-1.6-1.1-.3-2-.4-3-.4-2.3,0-3.8.6-4.5,1.8-.7,1.2-1.1,2.3-1.1,3.4s.3,2,.8,2.7c.5.8,1.2,1.3,2,1.7.8.4,2,.9,3.5,1.5,1.7.7,3,1.3,4.1,1.8,1,.6,1.9,1.4,2.7,2.4.8,1.1,1.2,2.4,1.2,3.9s-.3,2.5-1,3.6c-.7,1.1-1.7,1.9-3.1,2.5-1.4.6-3,.9-5,.9s-4-.3-6-.8c-.4,0-.6-.1-.7-.1-.4,0-.5.2-.4.7ZM259.8,110.4v-.9l4.6-2.5.4-.2c.2,0,.3.1.3.4l-.3,3.5c-.2,2.8-.3,4.5-.3,5.2,0,1.6.2,2.8.6,3.9.4,1,1.4,1.5,2.9,1.5s1,0,1.5-.3c.5-.1,1.1-.4,1.8-.7.7-.3,1.2-.6,1.6-.8,0-1,0-1.7,0-2v-4.2c.2-1.3.1-2.2,0-2.7-.1-.5-.3-.8-.7-1-.3-.1-.9-.2-1.7-.3v-.8s5.5-1.3,5.5-1.3c0,1.2-.1,2.4-.2,3.5,0,1.1-.1,2.3-.2,3.6,0,1.3,0,2.2,0,2.8,0,2,.1,3.4.4,4.2.7,0,1.5-.2,2.3-.5v.9c-1.6.4-3.1,1-4.8,1.6-.2-.8-.4-1.7-.5-2.9-3.3,1.7-5.7,2.6-7,2.6s-1.8-.4-2.7-1.3c-.8-.8-1.3-2.4-1.2-4.9v-4.6c.2-.8.1-1.4,0-1.9,0-.4-.3-.6-.8-.6s-.7.2-1.5.6ZM283.8,122.9v-.6c.7-.1,1.2-.3,1.5-.4.3-.1.5-.5.7-1,.2-.5.3-1.3.4-2.3,0-1,0-2.6,0-4.6s0-2.8-.3-3.3c-.2-.5-.6-.8-1.4-.8s-.8,0-1.3.2v-.7c0,0,5.4-3.1,5.4-3.1,0,.8,0,2,0,3.5l2.2-1.3c0,0,.2-.1.3-.2.1,0,.3-.2.5-.3.2,0,.5-.3,1-.6.5-.3.8-.5,1.1-.7h.2c0,.2.2.2.3.3.4.2.7.4,1,.6.2.3.3.6.3,1.1s-.2,1-.6,1.3c-.5.3-1,.5-1.6.6,0-.5-.1-.8-.3-1.1-.2-.3-.5-.4-.9-.4s-.9.1-1.5.4c-.6.3-1,.6-1.3.8-.3.3-.5.5-.6.8,0,.2-.1.7-.1,1.5,0,2.3-.1,3.5-.1,3.7,0,2.7.1,4.3.4,5,.1.2.3.3.4.4.1,0,.4,0,.8,0h.5s2.4,0,2.4,0v.8c-.1,0-.5,0-1.4,0-.8,0-1.3,0-1.6,0l-6.6.2ZM309.5,123.9h-.7c-.4-1.6-.9-3.4-1.7-5.6-.8-2.2-1.5-4.2-2.3-6.1-.8-1.9-1.3-2.9-1.4-3-.2-.1-.4-.3-.7-.5-.3-.1-.5-.3-.8-.4v-.5c.5,0,1.2,0,2.2,0,1.5,0,3.2,0,5.3-.2v.7c-1.1.1-1.7.2-1.9.3-.3,0-.4.3-.4.5,0,.6.4,2.2,1.2,4.7.8,2.5,1.5,4.3,2,5.4.9-1.5,1.7-3.2,2.5-5.1.8-2,1.2-3.4,1.2-4.2s-.2-1.1-.6-1.2c-.4-.2-.9-.3-1.6-.3v-.7c0,0,1.5,0,1.5,0,.8,0,1.4.1,1.9.1.8,0,1.6,0,2.4-.3v.6c-.6.3-1.2.7-1.6,1.4-.5.7-.8,1.3-1,1.8,0,0-.2.3-.3.8-.2.5-.3.8-.4.9l-3.7,8.2-1.1,2.6ZM335.9,112.2l-10.3,2.2c0,1.3.2,2.3.4,3,.2.7.5,1.4,1.1,2.2,1.1,1.4,2.4,2.1,3.8,2.1s1.3-.1,2-.3c.7-.3,1.5-.6,2.3-1.2l.4.5c-2.4,1.7-4.5,2.6-6.4,2.6s-3.5-.8-4.6-2.2c-1.1-1.5-1.6-3.2-1.6-5.1s.4-3.6,1.3-4.9c.8-1.3,1.8-2.2,2.8-2.8,1-.6,1.8-.9,2.4-.9s1.3,0,1.9.3c.7.2,1.4.6,2,1.1.6.5,1.2,1.3,1.6,2.3.1.2.2.3.3.4.1,0,.3,0,.6,0v.8ZM325.6,113.6l2.7-.6c.1,0,.5-.2,1.3-.3.7-.2,1.2-.3,1.4-.3.7-.2,1.2-.3,1.4-.3.2,0,.3-.2.3-.3,0-.2-.2-.6-.5-1.1-.3-.5-.8-1-1.4-1.4-.6-.5-1.4-.7-2.2-.7s-1.8.5-2.2,1.6c-.4,1.1-.7,2.2-.8,3.5ZM362.6,115.2c0-1.2.2-2.3.7-3.3.5-1,1.1-1.8,1.9-2.5.8-.7,1.7-1.3,2.7-1.6,1-.4,2.2-.6,3.3-.6s2.1.2,3.1.6c1,.4,1.8,1,2.5,1.6.8.7,1.3,1.5,1.7,2.5.4,1,.6,2,.6,3.1s-.3,2.8-1,4c-.7,1.3-1.6,2.3-2.9,3-1.3.8-2.7,1.1-4.3,1.1s-2.5-.3-3.8-.8c-1.3-.5-2.4-1.4-3.2-2.6-.9-1.2-1.4-2.7-1.4-4.6ZM365.3,114c0,1.3.3,2.5.8,3.8.5,1.3,1.2,2.3,2.2,3.1.9.8,1.9,1.2,3,1.2s1.9-.3,2.6-.8c.8-.5,1.4-1.3,1.9-2.2.5-1,.7-2.1.7-3.3s-.3-2.4-.8-3.7c-.5-1.2-1.3-2.2-2.2-2.9-1-.8-2-1.1-3.2-1.1s-1.8.3-2.5.8c-.7.5-1.3,1.2-1.7,2.1-.4.9-.6,1.9-.6,3ZM385.9,122.9v-.6c.7-.1,1.2-.3,1.5-.4.3-.1.5-.5.7-1,.2-.5.3-1.3.4-2.3,0-1,0-2.6,0-4.6s0-2.8-.3-3.3c-.2-.5-.6-.8-1.4-.8s-.8,0-1.3.2v-.7c0,0,5.4-3.1,5.4-3.1,0,.8,0,2,0,3.5l2.2-1.3c0,0,.2-.1.3-.2.1,0,.3-.2.5-.3.2,0,.5-.3,1-.6.5-.3.8-.5,1.1-.7h.2c0,.2.2.2.3.3.4.2.7.4,1,.6.2.3.3.6.3,1.1s-.2,1-.6,1.3c-.5.3-1,.5-1.6.6,0-.5-.1-.8-.3-1.1-.2-.3-.5-.4-.9-.4s-.9.1-1.5.4c-.6.3-1,.6-1.3.8-.3.3-.5.5-.6.8,0,.2-.1.7-.1,1.5,0,2.3-.1,3.5-.1,3.7,0,2.7.1,4.3.4,5,.1.2.3.3.4.4.1,0,.4,0,.8,0h.5s2.4,0,2.4,0v.8c-.1,0-.5,0-1.4,0-.8,0-1.3,0-1.6,0l-6.6.2ZM403.4,118.3h.7c0,.3.2.7.7,1.3.5.6,1.1,1.1,1.8,1.6.8.5,1.6.7,2.4.7s1.3-.1,1.9-.4c.6-.3,1-.8,1-1.8s-.3-1.7-1-2.3c-.7-.6-1.4-1.1-2.3-1.5l-1.5-.7c-.9-.5-1.6-1-2.2-1.5-.5-.5-.8-1.2-.8-2s.2-1.3.7-2c.5-.7,1.1-1.3,2-1.7.9-.5,1.9-.7,3-.7s1.7,0,3.3.3l.7,3.5h-.7c-.1-.5-.4-.9-.8-1.4-.5-.4-1-.8-1.6-1.1-.6-.3-1.1-.4-1.5-.4-.8,0-1.4.2-1.8.7-.5.4-.7,1-.7,1.7s.2,1,.5,1.3c.3.3,1,.8,1.9,1.2l1.3.6c1.1.5,2.1,1.2,2.9,1.9.8.7,1.2,1.7,1.2,3s0,1-.3,1.5c-.2.5-.5.9-.9,1.2-1.1.7-2.1,1.2-2.9,1.4-.7.3-1.5.3-2.2.3s-.7,0-1.2,0c-.5,0-.9-.1-1.1-.2-.2,0-.5-.2-1.1-.3-.5-.2-.8-.3-1-.3.1-.5.2-1,.2-1.2,0-.3,0-.8-.2-1.4-.1-.6-.2-1-.3-1.3ZM341.3,108.5v-.6c.7,0,1.6.1,2.8.1s2.8,0,4.2-.3v.8c-.6.1-1,.3-1.3.4-.3.1-.4.4-.4.8,0,.7.3,2.1.9,4.3.6,2.2,1.3,4.3,2.1,6.5l1.4-2.4c.6-1,1.3-2.4,2.1-4.2.8-1.8,1.2-3.1,1.2-3.8s-1-1.6-2.9-1.8l.3-.7c1.6.2,3,.3,4.3.3s1.6,0,2-.1v.7c-.4,0-.8.2-1.1.4-.3.2-.6.5-.8,1-.3.4-.5.9-.8,1.5l-2.2,4.6c0,0-.5,1.1-1.6,3-1.4,2.9-2.5,5.2-3.3,6.9-.7,1.7-1.3,3.1-1.6,4.3-.3,1.1-.8,2.6-1.2,4.5h-4.4v-.7c.9-.2,1.6-.5,2.2-1,.5-.4,1-1,1.5-1.7.4-.8,1-1.9,1.6-3.4l1.6-3.6c-.8-3-1.5-5.5-2.2-7.8-.6-2.2-1.3-4.1-1.9-5.5-.3-.7-.5-1.2-.8-1.6-.3-.3-.5-.5-.8-.6-.3-.1-.6-.2-1.1-.3Z"/>
    <path class="st3" d="M238,122.9h-.8c0-1.9-.3-4.3-1.1-6.9.3,0,.5-.2.7-.2.3,1,.6,1.8.8,2.2.2.5.4.9.7,1.2.3.4.7.7,1.3,1,.9.5,1.9.9,3.1,1.3,1.1.3,2.4.5,3.8.5s2.4-.3,3.5-.9c1.2-.5,1.8-1.8,1.8-3.8s-.2-1.9-.5-2.5c-.3-.7-.8-1.3-1.4-1.8-.5-.4-1.2-.8-1.9-1.1-.7-.3-1.7-.8-2.9-1.2-1.6-.6-3-1.2-4-1.8-1.1-.6-1.9-1.4-2.5-2.3-.6-.9-.9-2-.9-3.3,0-2.1.8-3.8,2.3-5.2,1.5-1.4,3.7-2.1,6.5-2.1s2.9.2,4.3.5c.5.1.9.2,1.1.2.4,0,.8-.1,1.2-.4h.2c.1,0,.3,0,.4,0,0,.3,0,.6-.1.9,0,.3,0,.6,0,1,0,.4,0,.7,0,.9,0,.2,0,.3,0,.4.2,1.6.3,2.5.3,2.7h-.6c-.1-1.4-.5-2.4-1.4-3.2-.8-.8-1.7-1.4-2.7-1.6-1.1-.3-2-.4-3-.4-2.3,0-3.8.6-4.5,1.8-.7,1.2-1.1,2.3-1.1,3.4s.3,2,.8,2.7c.5.8,1.2,1.3,2,1.7.8.4,2,.9,3.5,1.5,1.7.7,3,1.3,4.1,1.8,1,.6,1.9,1.4,2.7,2.4.8,1.1,1.2,2.4,1.2,3.9s-.3,2.5-1,3.6c-.7,1.1-1.7,1.9-3.1,2.5-1.4.6-3,.9-5,.9s-4-.3-6-.8c-.4,0-.6-.1-.7-.1-.4,0-.5.2-.4.7ZM259.8,110.4v-.9l4.6-2.5.4-.2c.2,0,.3.1.3.4l-.3,3.5c-.2,2.8-.3,4.5-.3,5.2,0,1.6.2,2.8.6,3.9.4,1,1.4,1.5,2.9,1.5s1,0,1.5-.3c.5-.1,1.1-.4,1.8-.7.7-.3,1.2-.6,1.6-.8,0-1,0-1.7,0-2v-4.2c.2-1.3.1-2.2,0-2.7-.1-.5-.3-.8-.7-1-.3-.1-.9-.2-1.7-.3v-.8s5.5-1.3,5.5-1.3c0,1.2-.1,2.4-.2,3.5,0,1.1-.1,2.3-.2,3.6,0,1.3,0,2.2,0,2.8,0,2,.1,3.4.4,4.2.7,0,1.5-.2,2.3-.5v.9c-1.6.4-3.1,1-4.8,1.6-.2-.8-.4-1.7-.5-2.9-3.3,1.7-5.7,2.6-7,2.6s-1.8-.4-2.7-1.3c-.8-.8-1.3-2.4-1.2-4.9v-4.6c.2-.8.1-1.4,0-1.9,0-.4-.3-.6-.8-.6s-.7.2-1.5.6ZM283.8,122.9v-.6c.7-.1,1.2-.3,1.5-.4.3-.1.5-.5.7-1,.2-.5.3-1.3.4-2.3,0-1,0-2.6,0-4.6s0-2.8-.3-3.3c-.2-.5-.6-.8-1.4-.8s-.8,0-1.3.2v-.7c0,0,5.4-3.1,5.4-3.1,0,.8,0,2,0,3.5l2.2-1.3c0,0,.2-.1.3-.2.1,0,.3-.2.5-.3.2,0,.5-.3,1-.6.5-.3.8-.5,1.1-.7h.2c0,.2.2.2.3.3.4.2.7.4,1,.6.2.3.3.6.3,1.1s-.2,1-.6,1.3c-.5.3-1,.5-1.6.6,0-.5-.1-.8-.3-1.1-.2-.3-.5-.4-.9-.4s-.9.1-1.5.4c-.6.3-1,.6-1.3.8-.3.3-.5.5-.6.8,0,.2-.1.7-.1,1.5,0,2.3-.1,3.5-.1,3.7,0,2.7.1,4.3.4,5,.1.2.3.3.4.4.1,0,.4,0,.8,0h.5s2.4,0,2.4,0v.8c-.1,0-.5,0-1.4,0-.8,0-1.3,0-1.6,0l-6.6.2ZM309.5,123.9h-.7c-.4-1.6-.9-3.4-1.7-5.6-.8-2.2-1.5-4.2-2.3-6.1-.8-1.9-1.3-2.9-1.4-3-.2-.1-.4-.3-.7-.5-.3-.1-.5-.3-.8-.4v-.5c.5,0,1.2,0,2.2,0,1.5,0,3.2,0,5.3-.2v.7c-1.1.1-1.7.2-1.9.3-.3,0-.4.3-.4.5,0,.6.4,2.2,1.2,4.7.8,2.5,1.5,4.3,2,5.4.9-1.5,1.7-3.2,2.5-5.1.8-2,1.2-3.4,1.2-4.2s-.2-1.1-.6-1.2c-.4-.2-.9-.3-1.6-.3v-.7c0,0,1.5,0,1.5,0,.8,0,1.4.1,1.9.1.8,0,1.6,0,2.4-.3v.6c-.6.3-1.2.7-1.6,1.4-.5.7-.8,1.3-1,1.8,0,0-.2.3-.3.8-.2.5-.3.8-.4.9l-3.7,8.2-1.1,2.6ZM335.9,112.2l-10.3,2.2c0,1.3.2,2.3.4,3,.2.7.5,1.4,1.1,2.2,1.1,1.4,2.4,2.1,3.8,2.1s1.3-.1,2-.3c.7-.3,1.5-.6,2.3-1.2l.4.5c-2.4,1.7-4.5,2.6-6.4,2.6s-3.5-.8-4.6-2.2c-1.1-1.5-1.6-3.2-1.6-5.1s.4-3.6,1.3-4.9c.8-1.3,1.8-2.2,2.8-2.8,1-.6,1.8-.9,2.4-.9s1.3,0,1.9.3c.7.2,1.4.6,2,1.1.6.5,1.2,1.3,1.6,2.3.1.2.2.3.3.4.1,0,.3,0,.6,0v.8ZM325.6,113.6l2.7-.6c.1,0,.5-.2,1.3-.3.7-.2,1.2-.3,1.4-.3.7-.2,1.2-.3,1.4-.3.2,0,.3-.2.3-.3,0-.2-.2-.6-.5-1.1-.3-.5-.8-1-1.4-1.4-.6-.5-1.4-.7-2.2-.7s-1.8.5-2.2,1.6c-.4,1.1-.7,2.2-.8,3.5ZM362.6,115.2c0-1.2.2-2.3.7-3.3.5-1,1.1-1.8,1.9-2.5.8-.7,1.7-1.3,2.7-1.6,1-.4,2.2-.6,3.3-.6s2.1.2,3.1.6c1,.4,1.8,1,2.5,1.6.8.7,1.3,1.5,1.7,2.5.4,1,.6,2,.6,3.1s-.3,2.8-1,4c-.7,1.3-1.6,2.3-2.9,3-1.3.8-2.7,1.1-4.3,1.1s-2.5-.3-3.8-.8c-1.3-.5-2.4-1.4-3.2-2.6-.9-1.2-1.4-2.7-1.4-4.6ZM365.3,114c0,1.3.3,2.5.8,3.8.5,1.3,1.2,2.3,2.2,3.1.9.8,1.9,1.2,3,1.2s1.9-.3,2.6-.8c.8-.5,1.4-1.3,1.9-2.2.5-1,.7-2.1.7-3.3s-.3-2.4-.8-3.7c-.5-1.2-1.3-2.2-2.2-2.9-1-.8-2-1.1-3.2-1.1s-1.8.3-2.5.8c-.7.5-1.3,1.2-1.7,2.1-.4.9-.6,1.9-.6,3ZM385.9,122.9v-.6c.7-.1,1.2-.3,1.5-.4.3-.1.5-.5.7-1,.2-.5.3-1.3.4-2.3,0-1,0-2.6,0-4.6s0-2.8-.3-3.3c-.2-.5-.6-.8-1.4-.8s-.8,0-1.3.2v-.7c0,0,5.4-3.1,5.4-3.1,0,.8,0,2,0,3.5l2.2-1.3c0,0,.2-.1.3-.2.1,0,.3-.2.5-.3.2,0,.5-.3,1-.6.5-.3.8-.5,1.1-.7h.2c0,.2.2.2.3.3.4.2.7.4,1,.6.2.3.3.6.3,1.1s-.2,1-.6,1.3c-.5.3-1,.5-1.6.6,0-.5-.1-.8-.3-1.1-.2-.3-.5-.4-.9-.4s-.9.1-1.5.4c-.6.3-1,.6-1.3.8-.3.3-.5.5-.6.8,0,.2-.1.7-.1,1.5,0,2.3-.1,3.5-.1,3.7,0,2.7.1,4.3.4,5,.1.2.3.3.4.4.1,0,.4,0,.8,0h.5s2.4,0,2.4,0v.8c-.1,0-.5,0-1.4,0-.8,0-1.3,0-1.6,0l-6.6.2ZM403.4,118.3h.7c0,.3.2.7.7,1.3.5.6,1.1,1.1,1.8,1.6.8.5,1.6.7,2.4.7s1.3-.1,1.9-.4c.6-.3,1-.8,1-1.8s-.3-1.7-1-2.3c-.7-.6-1.4-1.1-2.3-1.5l-1.5-.7c-.9-.5-1.6-1-2.2-1.5-.5-.5-.8-1.2-.8-2s.2-1.3.7-2c.5-.7,1.1-1.3,2-1.7.9-.5,1.9-.7,3-.7s1.7,0,3.3.3l.7,3.5h-.7c-.1-.5-.4-.9-.8-1.4-.5-.4-1-.8-1.6-1.1-.6-.3-1.1-.4-1.5-.4-.8,0-1.4.2-1.8.7-.5.4-.7,1-.7,1.7s.2,1,.5,1.3c.3.3,1,.8,1.9,1.2l1.3.6c1.1.5,2.1,1.2,2.9,1.9.8.7,1.2,1.7,1.2,3s0,1-.3,1.5c-.2.5-.5.9-.9,1.2-1.1.7-2.1,1.2-2.9,1.4-.7.3-1.5.3-2.2.3s-.7,0-1.2,0c-.5,0-.9-.1-1.1-.2-.2,0-.5-.2-1.1-.3-.5-.2-.8-.3-1-.3.1-.5.2-1,.2-1.2,0-.3,0-.8-.2-1.4-.1-.6-.2-1-.3-1.3ZM341.3,108.5v-.6c.7,0,1.6.1,2.8.1s2.8,0,4.2-.3v.8c-.6.1-1,.3-1.3.4-.3.1-.4.4-.4.8,0,.7.3,2.1.9,4.3.6,2.2,1.3,4.3,2.1,6.5l1.4-2.4c.6-1,1.3-2.4,2.1-4.2.8-1.8,1.2-3.1,1.2-3.8s-1-1.6-2.9-1.8l.3-.7c1.6.2,3,.3,4.3.3s1.6,0,2-.1v.7c-.4,0-.8.2-1.1.4-.3.2-.6.5-.8,1-.3.4-.5.9-.8,1.5l-2.2,4.6c0,0-.5,1.1-1.6,3-1.4,2.9-2.5,5.2-3.3,6.9-.7,1.7-1.3,3.1-1.6,4.3-.3,1.1-.8,2.6-1.2,4.5h-4.4v-.7c.9-.2,1.6-.5,2.2-1,.5-.4,1-1,1.5-1.7.4-.8,1-1.9,1.6-3.4l1.6-3.6c-.8-3-1.5-5.5-2.2-7.8-.6-2.2-1.3-4.1-1.9-5.5-.3-.7-.5-1.2-.8-1.6-.3-.3-.5-.5-.8-.6-.3-.1-.6-.2-1.1-.3Z"/>
    <path class="st0" d="M146.2,27h3.2l30.8,56.8-1.4,2.9-32.6-59.7ZM395.6,8.6v80.5h-2.6V8.6c0,0,2.6,0,2.6,0ZM343.5,27.6c10.8,9.4,11.8,18.7,5.2,28.1,10.7-7.3,7.6-24.9-5.2-28.1ZM342.9,61c6.4-1.1,15.6,22.7,24,27.1-4.9,4.8-18.9-23.2-24-27.1ZM106.2,9.4c-4.9,2.6-9.2,7.4-9.8,17.2-1,21.3,31,28,31.2,44.9-.3,8.3-5.2,15.5-11.4,20.1,8.8-3.6,13.2-9.9,14-19.3.2-16.4-12.5-19.4-28.4-36-6-8.1-3.9-17.9,4.4-26.9ZM324.7,27.8v61.4h-2.6V27.8c0,0,2.6,0,2.6,0ZM266.9,36.1l1.6-4,24.1,57.2h-3.5s-22.2-53.2-22.2-53.2ZM209.8,35.7l2.3-4.3,3,57.7h-2.8l-2.5-53.4Z"/>
  </g>
</svg>