<svg xmlns="http://www.w3.org/2000/svg" version="1.1" xmlns:xlink="http://www.w3.org/1999/xlink" width="73.6" height="124.4"><svg id="SvgjsSvg1004" xmlns="http://www.w3.org/2000/svg" xmlns:inkscape="http://www.inkscape.org/namespaces/inkscape" version="1.1" viewBox="0 0 73.6 124.4">
  <!-- Generator: Adobe Illustrator 29.5.1, SVG Export Plug-In . SVG Version: 2.1.0 Build 141)  -->
  <defs>
    <style>
      .st0 {
        fill: #dc0811;
        fill-rule: evenodd;
      }
    </style>
  </defs>
  <g inkscape:groupmode="layer" inkscape:label="Layer 1">
    <path class="st0" d="M47.2,0c5,0,9.1,3.7,9.1,8.3s-4.1,8.3-9.1,8.3-9.1-3.7-9.1-8.3S42.2,0,47.2,0ZM11.9,13.2c1.7-.2,3.5-.5,5.2-.7-.7,8.5.9,12.3,5.2,10.9,4.4-1,8.8-2,13.2-3,6.3.7,13.5.7,21.4,0,9.8,2.1,18,5.3,16.5,15.5-1.3,5.3-5.4,8.6-11.3,10.7-.5-1.3-1-2.7-1.5-4,4.1-2.3,6.8-5.1,7-8.6-.7-4.3-5.3-6.7-11.3-6.1,1.1,17.3,2.2,34.5,3.3,51.8-5.1-9.7-10.3-19.3-15.4-29-5.7,9.7-11.3,19.3-17,29,3.1-16.9,6.1-33.9,9.2-50.8-4.2.4-8.3.8-12.5,1.3-4.5.3-7.3-.7-8.7-2.7.7-2.9,1.1-5.6-2.7-4.9-.2-3.1-.4-6.2-.6-9.3h0ZM0,4.9h5.5v5.1H0v-5.1ZM7.9,4.9l27.7.7v3.7l-27.7.7s0-5.1,0-5.1ZM43.2,78.6c15.6,0,28.3,10.3,28.3,22.9s-12.7,22.9-28.3,22.9-14.4-2.4-19.4-6.3c4.3-6.9,11.7-12.5,21.6-17.1.6-1,.2-1.5-1-1.4-8.8,3.1-17.4,8.3-24.2,15.2-.9-1-1.7-2.2-2.4-3.3,5.2-9,15.5-14.4,29.3-17.3.9-.9.5-1.4-.7-1.6-10.9,1.2-22.2,5.2-31.2,12.1-.2-1-.3-2.1-.3-3.2s0-.4,0-.6c7-9.4,19.1-13,34.8-12.6,1-.6.8-1.2-.3-1.7-10.1-1.3-21-.3-30.8,3.5,4.9-6.9,14-11.6,24.6-11.6"></path>
  </g>
</svg><style>@media (prefers-color-scheme: light) { :root { filter: none; } }
@media (prefers-color-scheme: dark) { :root { filter: none; } }
</style></svg>